<?xml version="1.0" encoding="UTF-8" standalone="no"?>
<!DOCTYPE svg PUBLIC "-//W3C//DTD SVG 1.1//EN" "http://www.w3.org/Graphics/SVG/1.1/DTD/svg11.dtd">
<svg width="100%" height="100%" viewBox="0 0 82 78" version="1.1" xmlns="http://www.w3.org/2000/svg" xmlns:xlink="http://www.w3.org/1999/xlink" xml:space="preserve" xmlns:serif="http://www.serif.com/" style="fill-rule:evenodd;clip-rule:evenodd;">
    <g transform="matrix(2.962963,0,0,2.962963,-84.925926,-70.62963)">
        <path d="M41,44C37.134,44 34,40.866 34,37C34,33.134 37.134,30 41,30C44.866,30 48,33.134 48,37C48,38.292 47.65,39.503 47.039,40.542C46.963,40.672 46.943,40.828 46.99,40.97L47.684,43.051C47.814,43.442 47.442,43.814 47.051,43.684L44.97,42.99C44.828,42.943 44.672,42.963 44.542,43.039C43.503,43.65 42.292,44 41,44Z" style="fill:url(#_Linear1);"/>
    </g>
    <g transform="matrix(2.962963,0,0,2.962963,-84.925926,-70.62963)">
        <path d="M49,47C45.134,47 42,43.866 42,40C42,36.134 45.134,33 49,33C52.866,33 56,36.134 56,40C56,41.292 55.65,42.503 55.039,43.542C54.963,43.672 54.943,43.828 54.99,43.97L55.684,46.051C55.814,46.442 55.442,46.814 55.051,46.684L52.97,45.99C52.828,45.943 52.672,45.963 52.542,46.039C51.503,46.65 50.292,47 49,47Z" style="fill:url(#_Linear2);"/>
    </g>
    <g transform="matrix(2.962963,0,0,2.962963,-84.925926,-70.62963)">
        <path d="M39,47C44.523,47 49,42.523 49,37C49,31.477 44.523,27 39,27C33.477,27 29,31.477 29,37C29,38.883 29.52,40.644 30.425,42.148C30.503,42.277 30.522,42.433 30.475,42.575L29.316,46.051C29.186,46.442 29.558,46.814 29.949,46.684L33.425,45.525C33.567,45.478 33.723,45.497 33.852,45.575C35.356,46.48 37.117,47 39,47Z" style="fill:url(#_Linear3);"/>
        <path d="M39,27.5C44.247,27.5 48.5,31.753 48.5,37C48.5,42.247 44.247,46.5 39,46.5C37.211,46.5 35.538,46.006 34.109,45.147C33.861,44.997 33.554,44.955 33.267,45.051L29.791,46.209L30.949,42.733C31.045,42.446 31.003,42.139 30.854,41.891C29.994,40.462 29.5,38.789 29.5,37C29.5,31.753 33.753,27.5 39,27.5Z" style="fill:none;fill-rule:nonzero;stroke:url(#_Linear4);stroke-width:1px;"/>
    </g>
    <g transform="matrix(2.962963,0,0,-2.962963,15.814815,41.962963)">
        <path d="M2,0.338L2,1.662C2,1.849 1.849,2 1.662,2L0.338,2C0.151,2 0,1.849 0,1.662L0,0.338C0,0.151 0.151,0 0.338,0L1.662,0C1.849,0 2,0.151 2,0.338Z" style="fill:url(#_Linear5);"/>
    </g>
    <g transform="matrix(2.962963,0,0,-2.962963,27.666667,41.962963)">
        <path d="M2,0.338L2,1.662C2,1.849 1.849,2 1.662,2L0.338,2C0.151,2 0,1.849 0,1.662L0,0.338C0,0.151 0.151,0 0.338,0L1.662,0C1.849,0 2,0.151 2,0.338Z" style="fill:url(#_Linear6);"/>
    </g>
    <g transform="matrix(2.962963,0,0,-2.962963,39.518519,41.962963)">
        <path d="M2,0.338L2,1.662C2,1.849 1.849,2 1.662,2L0.338,2C0.151,2 0,1.849 0,1.662L0,0.338C0,0.151 0.151,0 0.338,0L1.662,0C1.849,0 2,0.151 2,0.338Z" style="fill:url(#_Linear7);"/>
    </g>
    <defs>
        <linearGradient id="_Linear1" x1="0" y1="0" x2="1" y2="0" gradientUnits="userSpaceOnUse" gradientTransform="matrix(-14,14,-14,-14,48,30)"><stop offset="0" style="stop-color:rgb(247,247,173);stop-opacity:1"/><stop offset="1" style="stop-color:rgb(45,45,45);stop-opacity:1"/></linearGradient>
        <linearGradient id="_Linear2" x1="0" y1="0" x2="1" y2="0" gradientUnits="userSpaceOnUse" gradientTransform="matrix(-14,14,-14,-14,56,33)"><stop offset="0" style="stop-color:rgb(247,247,173);stop-opacity:1"/><stop offset="1" style="stop-color:rgb(45,45,45);stop-opacity:1"/></linearGradient>
        <linearGradient id="_Linear3" x1="0" y1="0" x2="1" y2="0" gradientUnits="userSpaceOnUse" gradientTransform="matrix(23,-22,22,23,26,49)"><stop offset="0" style="stop-color:white;stop-opacity:0.2"/><stop offset="1" style="stop-color:white;stop-opacity:0.5"/></linearGradient>
        <linearGradient id="_Linear4" x1="0" y1="0" x2="1" y2="0" gradientUnits="userSpaceOnUse" gradientTransform="matrix(-18,-21.5,21.5,-18,47,49)"><stop offset="0" style="stop-color:white;stop-opacity:0"/><stop offset="1" style="stop-color:white;stop-opacity:1"/></linearGradient>
        <linearGradient id="_Linear5" x1="0" y1="0" x2="1" y2="0" gradientUnits="userSpaceOnUse" gradientTransform="matrix(2.3,-2.2,2.2,2.3,-0.3,2.2)"><stop offset="0" style="stop-color:white;stop-opacity:0.2"/><stop offset="1" style="stop-color:white;stop-opacity:0.5"/></linearGradient>
        <linearGradient id="_Linear6" x1="0" y1="0" x2="1" y2="0" gradientUnits="userSpaceOnUse" gradientTransform="matrix(2.3,-2.2,2.2,2.3,-0.3,2.2)"><stop offset="0" style="stop-color:white;stop-opacity:0.2"/><stop offset="1" style="stop-color:white;stop-opacity:0.5"/></linearGradient>
        <linearGradient id="_Linear7" x1="0" y1="0" x2="1" y2="0" gradientUnits="userSpaceOnUse" gradientTransform="matrix(2.3,-2.2,2.2,2.3,-0.3,2.2)"><stop offset="0" style="stop-color:white;stop-opacity:0.2"/><stop offset="1" style="stop-color:white;stop-opacity:0.5"/></linearGradient>
    </defs>
</svg>
